<svg width="45" height="41" viewBox="0 0 45 41" fill="none" xmlns="http://www.w3.org/2000/svg">
<path d="M32.7786 12.6649C36.5399 10.7061 40.7351 9.67151 45 9.65085C39.1302 14.3261 39.8638 23.3384 35.8842 29.6255C34.6276 31.5771 32.9363 33.2282 30.9357 34.4565C28.935 35.6848 26.6763 36.4587 24.3269 36.7209L19.4149 39.6508C18.7409 35.9902 18.8895 32.2307 19.8505 28.6314C20.8114 25.0321 22.5619 21.6785 24.9814 18.8018C26.3551 17.201 27.9302 15.7752 29.6697 14.5579C32.7786 12.6649 32.7786 12.6649 32.7786 12.6649Z" fill="url(#paint0_linear_191_390)"/>
<path d="M12.3844 10.9344C13.943 6.99038 16.4347 3.46025 19.6433 0.650564C18.2716 8.02825 24.73 14.3566 25.8423 21.7137C26.1715 24.0114 25.9754 26.3669 25.2686 28.6056C24.5618 30.8442 23.3623 32.9087 21.7591 34.646L19.9675 40.0776C17.06 37.7535 14.7093 34.8158 13.0773 31.4669C11.4453 28.118 10.5708 24.4376 10.5141 20.6791C10.5032 18.5697 10.7592 16.4606 11.2758 14.4013C13.0773 9.33671 12.3844 10.9344 12.3844 10.9344Z" fill="url(#paint1_linear_191_390)"/>
<defs>
<linearGradient id="paint0_linear_191_390" x1="32" y1="9.65085" x2="25.2613" y2="37.5376" gradientUnits="userSpaceOnUse">
<stop stop-color="#75E00A"/>
<stop offset="1" stop-color="#DBFFB7"/>
</linearGradient>
<linearGradient id="paint1_linear_191_390" x1="9.82166" y1="9.16731" x2="23" y2="34.6508" gradientUnits="userSpaceOnUse">
<stop stop-color="#75E00A"/>
<stop offset="1" stop-color="#DBFFB7"/>
</linearGradient>
</defs>
</svg>
